<svg width="2600" height="2600" xmlns="http://www.w3.org/2000/svg" xmlns:xlink="http://www.w3.org/1999/xlink" xml:space="preserve" overflow="hidden"><defs><clipPath id="clip0"><rect x="1021" y="1063" width="2600" height="2600"/></clipPath></defs><g clip-path="url(#clip0)" transform="translate(-1021 -1063)"><path d="M830.62 827.79C518.418 794.976 243.715 654.154 39.7386 446.354L0 401.805 512.778 401.805 512.778 0 548.908 33.4425C644.696 113.939 764.721 167.679 898.522 181.742L899.932 181.819 1188.84 470.729 831.695 827.876 830.62 827.79Z" fill="#936CAF" fill-rule="evenodd" transform="matrix(0.994522 0.104528 0.104528 -0.994522 1408.46 1800.28)"/><path d="M0 793.677 364.137 429.54 79.9507 145.353 132.812 142.881C261.694 130.324 381.044 79.5811 477.944 1.11299L479.192 0 888.45 0.000360892 888.45 504.44 886.754 505.952C660.655 689.044 373.44 796.663 66.1393 795.584L0 793.677Z" fill="#9BBB40" fill-rule="evenodd" transform="matrix(0.994522 0.104528 0.104528 -0.994522 2304.96 1854.87)"/><path d="M288.476 885.357 215.889 786.421C66.5291 561.035-13.6637 288.006 1.9149 0.185499L1.92969 0 361.86 359.93 649.855 71.9349 652.711 133.001C663.175 240.402 700.157 341.185 757.603 427.872L793.095 476.246 793.095 885.357 288.476 885.357Z" fill="#5EC6D3" fill-rule="evenodd" transform="matrix(0.994522 0.104528 0.104528 -0.994522 1021.62 2296.19)"/><path d="M402.775 1185.34 402.775 672.992 0 672.992 31.1313 639.36C111.628 543.572 165.368 423.546 179.431 289.745L179.468 289.066 468.534 0 825.531 356.997 825.479 357.648C792.665 669.85 651.843 944.552 444.043 1148.53L402.775 1185.34Z" fill="#AA7B51" fill-rule="evenodd" transform="matrix(0.994522 0.104528 0.104528 -0.994522 2761.93 2632.46)"/><path d="M352.94 1138.56 0 785.623 0.0707349 784.737C28.1969 517.135 135.676 277.084 296.67 85.5073L375.819 0 375.819 404.082 899.195 404.082 883.356 415.703C770.306 507.248 687.814 636.53 656.396 786.935L647.464 844.039 352.94 1138.56Z" fill="#546E7A" fill-rule="evenodd" transform="matrix(0.994522 0.104528 0.104528 -0.994522 939.751 3143.49)"/><path d="M795.294 887.712 431.306 523.724 147.034 807.996 144.532 754.475C131.975 625.593 81.2315 506.242 2.76335 409.343L0 406.244 0 0 507.127 0 507.602 0.532316C703.772 242.781 813.302 555.189 795.327 887.29L795.294 887.712Z" fill="#65B1EF" fill-rule="evenodd" transform="matrix(0.994522 0.104528 0.104528 -0.994522 2734.87 3229.21)"/><path d="M0 730.282 0 333.037 48.6505 289.64C274.75 106.548 561.965-1.07113 869.266 0.00793963L933.616 1.86329 571.919 363.56 858.458 650.098 802.593 652.711C716.671 661.082 634.986 686.425 561.366 725.64L553.576 730.281 0 730.282Z" fill="#F26A62" fill-rule="evenodd" transform="matrix(0.994522 0.104528 0.104528 -0.994522 1323.72 3564.71)"/><path d="M671.265 824.172 639.283 794.569C559.46 727.488 462.805 678.988 355.373 656.547L291.815 646.605 0 354.79 354.791 0 357.571 0.221227C669.773 33.035 944.475 173.857 1148.45 381.657L1186.3 424.088 671.265 424.088 671.265 824.172Z" fill="#F8841D" fill-rule="evenodd" transform="matrix(0.994522 0.104528 0.104528 -0.994522 1965.43 3625.11)"/><text fill="#FFFFFF" font-family="Calibri,Calibri_MSFontService,sans-serif" font-weight="700" font-size="110" transform="matrix(1 0 0 1 2182.41 1352)">3<tspan font-size="83" x="-106.242" y="106">Internal</tspan><tspan font-size="83" x="-68.4522" y="205">offic</tspan><tspan font-size="83" x="82.7979" y="205">e</tspan><tspan font-size="110" x="731.582" y="203">7</tspan><tspan font-size="83" x="633.636" y="309">BO Req</tspan><tspan font-size="83" x="563.305" y="408">Verificatio</tspan><tspan font-size="83" x="911.318" y="408">n</tspan><tspan font-size="110" x="1079.71" y="787">4</tspan><tspan font-size="83" x="986.322" y="893">QA/QC</tspan><tspan font-size="110" x="908.18" y="1488">4</tspan><tspan font-size="83" x="890.992" y="1594">All </tspan><tspan font-size="83" x="727.505" y="1693">Directorates</tspan><tspan font-size="110" x="257.158" y="1879">5</tspan><tspan font-size="83" x="191.524" y="1985">Scarb</tspan><tspan font-size="83" x="161.366" y="2084">Revie</tspan><tspan font-size="83" x="347.243" y="2084">w</tspan><tspan font-size="110" x="-508.073" y="1708">4</tspan><tspan font-size="83" x="-604.895" y="1814">Deputy</tspan><tspan font-size="83" x="-612.32" y="1913">Chief of </tspan><tspan font-size="83" x="-560.162" y="2012">Staf</tspan><tspan font-size="83" x="-426.764" y="2012">f</tspan><tspan font-size="110" x="-866.159" y="1041">3</tspan><tspan font-size="83" x="-970.407" y="1147">Chief of </tspan><tspan font-size="83" x="-918.249" y="1246">Staf</tspan><tspan font-size="83" x="-784.851" y="1246">f</tspan><tspan font-size="110" x="-634.488" y="340">3</tspan><tspan font-size="83" x="-762.202" y="446">Resource </tspan><tspan font-size="83" x="-835.329" y="545">Management</tspan><tspan fill="#000000" font-weight="400" font-size="220" x="27.1191" y="913">33</tspan><tspan fill="#000000" font-weight="400" font-size="220" x="-136.093" y="1177">TOTA</tspan><tspan fill="#000000" font-weight="400" font-size="220" x="321.553" y="1177">L</tspan></text></g></svg>